<svg xmlns="http://www.w3.org/2000/svg" width="152" height="52" viewBox="0 0 152 52" role="img" aria-label="LINKEDIN">
<rect width="152" height="52" fill="none"/>
<style>@media(prefers-reduced-motion:reduce){.pulse{animation:none!important}}.pulse{animation:btnpulse 2.6s ease-in-out infinite}@keyframes btnpulse{0%,100%{opacity:.15}50%{opacity:.6}}</style>
<rect x="1" y="1" width="150" height="50" rx="12" fill="#1C1914" stroke="#332E27" stroke-width="1.3"/>
<g transform="translate(20.0,16.0) scale(0.8333)"><path d="M20.447 20.452h-3.554v-5.569c0-1.328-.027-3.037-1.852-3.037-1.853 0-2.136 1.445-2.136 2.939v5.667H9.351V9h3.414v1.561h.046c.477-.9 1.637-1.85 3.37-1.85 3.601 0 4.267 2.37 4.267 5.455v6.286zM5.337 7.433c-1.144 0-2.063-.926-2.063-2.065 0-1.138.92-2.063 2.063-2.063 1.14 0 2.064.925 2.064 2.063 0 1.139-.925 2.065-2.064 2.065zm1.782 13.019H3.555V9h3.564v11.452zM22.225 0H1.771C.792 0 0 .774 0 1.729v20.542C0 23.227.792 24 1.771 24h20.451C23.2 24 24 23.227 24 22.271V1.729C24 .774 23.2 0 22.222 0h.003z" fill="#8FA888"/></g>
<text x="50" y="31.0" font-family="-apple-system, BlinkMacSystemFont, 'Segoe UI', Helvetica, Arial, sans-serif" font-size="14" font-weight="700" fill="#F3EEE4" text-anchor="start" opacity="1.0">LINKEDIN</text>
</svg>