<svg width="1200" height="60" viewBox="0 0 1200 60" xmlns="http://www.w3.org/2000/svg" xmlns:xlink="http://www.w3.org/1999/xlink" font-family="SFMono-Regular,Consolas,Menlo,monospace">
  <defs>
    <g id="tickerSet">
      <!-- system vocabulary: purple -->
      <g fill="none" stroke="#a78bfa" stroke-width="1.5">
        <rect x="0" y="10" width="94" height="34" rx="17"/>
        <rect x="112" y="10" width="154" height="34" rx="17"/>
        <rect x="284" y="10" width="144" height="34" rx="17"/>
        <rect x="446" y="10" width="154" height="34" rx="17"/>
        <rect x="618" y="10" width="134" height="34" rx="17"/>
        <rect x="770" y="10" width="154" height="34" rx="17"/>
        <rect x="942" y="10" width="164" height="34" rx="17"/>
        <rect x="1124" y="10" width="144" height="34" rx="17"/>
      </g>
      <g font-size="13" font-weight="700" fill="#a78bfa">
        <text x="47" y="32" text-anchor="middle">GATEWAY</text>
        <text x="189" y="32" text-anchor="middle">POLICY ENGINE</text>
        <text x="356" y="32" text-anchor="middle">ROUTING MESH</text>
        <text x="523" y="32" text-anchor="middle">BUDGET LEDGER</text>
        <text x="685" y="32" text-anchor="middle">AUDIT TRAIL</text>
        <text x="847" y="32" text-anchor="middle">CONTROL PLANE</text>
        <text x="1024" y="32" text-anchor="middle">RECONCILIATION</text>
        <text x="1196" y="32" text-anchor="middle">RISK MONITOR</text>
      </g>
      <!-- tech stack: green -->
      <g fill="none" stroke="#39d353" stroke-width="1.5">
        <rect x="1286" y="10" width="44" height="34" rx="17"/>
        <rect x="1348" y="10" width="84" height="34" rx="17"/>
        <rect x="1450" y="10" width="64" height="34" rx="17"/>
        <rect x="1532" y="10" width="74" height="34" rx="17"/>
        <rect x="1624" y="10" width="124" height="34" rx="17"/>
        <rect x="1766" y="10" width="124" height="34" rx="17"/>
        <rect x="1908" y="10" width="124" height="34" rx="17"/>
        <rect x="2050" y="10" width="154" height="34" rx="17"/>
      </g>
      <g font-size="13" font-weight="600" fill="#39d353">
        <text x="1308" y="32" text-anchor="middle">GO</text>
        <text x="1390" y="32" text-anchor="middle">PYTHON</text>
        <text x="1482" y="32" text-anchor="middle">RUST</text>
        <text x="1569" y="32" text-anchor="middle">KAFKA</text>
        <text x="1686" y="32" text-anchor="middle">CLICKHOUSE</text>
        <text x="1828" y="32" text-anchor="middle">KUBERNETES</text>
        <text x="1970" y="32" text-anchor="middle">POSTGRESQL</text>
        <text x="2127" y="32" text-anchor="middle">0&#8594;1 OWNERSHIP</text>
      </g>
    </g>
  </defs>

  <rect width="1200" height="60" fill="#05070a"/>

  <g>
    <animateTransform attributeName="transform" attributeType="XML" type="translate" from="0 0" to="-2222 0" dur="26s" repeatCount="indefinite"/>
    <use xlink:href="#tickerSet" x="0" y="0"/>
    <use xlink:href="#tickerSet" x="2222" y="0"/>
  </g>

  <!-- edge fade masks -->
  <rect x="0" y="0" width="60" height="60" fill="url(#fadeLeft)"/>
  <rect x="1140" y="0" width="60" height="60" fill="url(#fadeRight)"/>
  <defs>
    <linearGradient id="fadeLeft" x1="0%" y1="0%" x2="100%" y2="0%">
      <stop offset="0%" stop-color="#05070a" stop-opacity="1"/>
      <stop offset="100%" stop-color="#05070a" stop-opacity="0"/>
    </linearGradient>
    <linearGradient id="fadeRight" x1="0%" y1="0%" x2="100%" y2="0%">
      <stop offset="0%" stop-color="#05070a" stop-opacity="0"/>
      <stop offset="100%" stop-color="#05070a" stop-opacity="1"/>
    </linearGradient>
  </defs>
</svg>
